<?xml version="1.0" encoding="UTF-8" standalone="no"?>
<!-- Created with Inkscape (http://www.inkscape.org/) -->

<svg
   xmlns:dc="http://purl.org/dc/elements/1.1/"
   xmlns:cc="http://creativecommons.org/ns#"
   xmlns:rdf="http://www.w3.org/1999/02/22-rdf-syntax-ns#"
   xmlns:svg="http://www.w3.org/2000/svg"
   xmlns="http://www.w3.org/2000/svg"
   xmlns:sodipodi="http://sodipodi.sourceforge.net/DTD/sodipodi-0.dtd"
   xmlns:inkscape="http://www.inkscape.org/namespaces/inkscape"
   width="500"
   height="500"
   viewBox="0 0 132.29166 132.29167"
   version="1.1"
   id="svg1067"
   inkscape:version="0.92.3 (2405546, 2018-03-11)"
   sodipodi:docname="icon.svg">
  <defs
     id="defs1061" />
  <sodipodi:namedview
     id="base"
     pagecolor="#ffffff"
     bordercolor="#666666"
     borderopacity="1.0"
     inkscape:pageopacity="0.0"
     inkscape:pageshadow="2"
     inkscape:zoom="0.7"
     inkscape:cx="169.29809"
     inkscape:cy="308.57741"
     inkscape:document-units="mm"
     inkscape:current-layer="layer1"
     showgrid="false"
     units="px"
     inkscape:window-width="1307"
     inkscape:window-height="713"
     inkscape:window-x="59"
     inkscape:window-y="27"
     inkscape:window-maximized="1" />
  <metadata
     id="metadata1064">
    <rdf:RDF>
      <cc:Work
         rdf:about="">
        <dc:format>image/svg+xml</dc:format>
        <dc:type
           rdf:resource="http://purl.org/dc/dcmitype/StillImage" />
        <dc:title></dc:title>
      </cc:Work>
    </rdf:RDF>
  </metadata>
  <g
     inkscape:label="Layer 1"
     inkscape:groupmode="layer"
     id="layer1"
     transform="translate(0,-164.70832)">
    <g
       id="g1759"
       transform="translate(0,4.4685872e-6)">
      <rect
         y="164.33034"
         x="-0.18898265"
         height="133.04762"
         width="132.66963"
         id="rect1669"
         style="opacity:1;fill:#ffffff;fill-opacity:0.96923062;stroke-width:0.26458332" />
      <g
         id="g1002"
         transform="matrix(0.78845095,0,0,-0.78845095,-91.544593,435.94806)">
        <g
           id="g60"
           transform="translate(238.0518,195.4561)">
          <path
             d="M 0,0 H -76.103 C -83.977,0 -90.36,6.383 -90.36,14.258 v 100.818 c 0,7.875 6.383,14.257 14.257,14.257 H 0 c 7.874,0 14.257,-6.382 14.257,-14.257 V 14.258 C 14.257,6.383 7.874,0 0,0"
             style="fill:#e3e3e3;fill-opacity:1;fill-rule:nonzero;stroke:none"
             id="path62"
             inkscape:connector-curvature="0" />
        </g>
        <g
           id="g986">
          <g
             transform="translate(235.5488,263.1885)"
             id="g64">
            <path
               inkscape:connector-curvature="0"
               id="path66"
               style="fill:#f26621;fill-opacity:1;fill-rule:nonzero;stroke:none"
               d="m 0,0 c -0.785,-0.797 -1.596,-1.533 -2.431,-2.193 -1.046,-0.823 -2.18,-1.533 -3.414,-2.119 -1.233,-0.598 -2.592,-1.046 -4.062,-1.346 -1.471,-0.311 -3.115,-0.461 -4.947,-0.461 -2.754,0 -5.322,0.499 -7.677,1.508 -2.367,0.997 -4.411,2.368 -6.131,4.112 -1.72,1.733 -3.066,3.789 -4.037,6.157 -0.96,2.355 -1.447,4.884 -1.447,7.576 v 0.1 c 0,2.692 0.487,5.209 1.447,7.552 0.785,1.906 1.819,3.614 3.09,5.134 0.324,0.349 0.648,0.686 0.997,1.009 0.037,-0.025 0,0 0.05,-0.025 -0.325,-1.146 -5.534,-12.835 2.168,-18.144 0.723,-0.511 1.321,-1.184 1.72,-1.981 0.461,-0.91 1.022,-1.745 1.669,-2.492 0.947,-1.072 2.094,-1.932 3.44,-2.555 1.346,-0.623 2.816,-0.947 4.436,-0.947 2.144,0 3.963,0.399 5.458,1.184 l 0.05,0.025 c 2.916,1.57 6.53,1.034 8.86,-1.322 z" />
          </g>
          <g
             style="fill:#3c6fca;fill-opacity:1"
             transform="translate(235.5488,263.1885)"
             id="g68">
            <path
               inkscape:connector-curvature="0"
               id="path70"
               style="fill:#3c6fca;fill-opacity:1;fill-rule:nonzero;stroke:none"
               d="m 0,0 c -0.785,-0.797 -1.596,-1.533 -2.431,-2.193 -1.046,-0.823 -2.18,-1.533 -3.414,-2.119 -1.233,-0.598 -2.592,-1.046 -4.062,-1.346 -1.471,-0.311 -3.115,-0.461 -4.947,-0.461 -2.754,0 -5.322,0.499 -7.677,1.508 -2.367,0.997 -4.411,2.368 -6.131,4.112 -1.72,1.733 -3.066,3.789 -4.037,6.157 -0.96,2.355 -1.447,4.884 -1.447,7.576 v 0.1 c 0,2.692 0.487,5.209 1.447,7.552 0.785,1.906 1.819,3.614 3.09,5.134 0.324,0.349 0.648,0.686 0.997,1.009 0.037,-0.025 0,0 0.05,-0.025 -0.325,-1.146 -5.534,-12.835 2.168,-18.144 0.723,-0.511 1.321,-1.184 1.72,-1.981 0.461,-0.91 1.022,-1.745 1.669,-2.492 0.947,-1.072 2.094,-1.932 3.44,-2.555 1.346,-0.623 2.816,-0.947 4.436,-0.947 2.144,0 3.963,0.399 5.458,1.184 l 0.05,0.025 c 2.916,1.57 6.53,1.034 8.86,-1.322 z" />
          </g>
          <g
             transform="translate(238.0117,290.2202)"
             id="g72">
            <path
               inkscape:connector-curvature="0"
               id="path74"
               style="fill:#0e1031;fill-opacity:1;fill-rule:nonzero;stroke:none"
               d="m 0,0 -1.032,-1.188 c -2.162,-2.49 -5.737,-3.197 -8.684,-1.718 -1.52,0.748 -3.24,1.121 -5.134,1.121 -1.583,0 -3.041,-0.298 -4.386,-0.909 -1.346,-0.611 -2.493,-1.446 -3.465,-2.53 -0.959,-1.071 -1.72,-2.318 -2.255,-3.726 -0.536,-1.421 -0.811,-2.941 -0.811,-4.549 v -0.111 c 0,-1.548 0.254,-3.014 0.751,-4.399 0.021,-0.057 -0.044,-0.108 -0.096,-0.08 -8.184,4.423 -4.882,14.56 -3.563,17.883 0.402,0.543 0.781,1.057 1.182,1.6 1.746,1.415 2.91,2.152 4.742,2.928 2.393,1.022 5.047,1.532 7.951,1.532 1.757,0 3.364,-0.149 4.81,-0.436 1.458,-0.286 2.766,-0.672 3.95,-1.184 1.185,-0.498 2.281,-1.109 3.277,-1.819 0.992,-0.71 1.912,-1.48 2.76,-2.323 C 0.022,0.067 0.023,0.026 0,0" />
          </g>
          <g
             style="fill:#3c6fca;fill-opacity:1"
             transform="translate(169.9106,266.8486)"
             id="g76">
            <path
               inkscape:connector-curvature="0"
               id="path78"
               style="fill:#3c6fca;fill-opacity:1;fill-rule:nonzero;stroke:none"
               d="M 0,0 C 2.786,-0.621 5.537,-0.531 7.967,1.934 5.167,2.228 4.93,2.521 4.895,5.132 4.867,7.108 4.874,9.091 4.86,11.074 5.935,11.396 6.982,12.003 7.967,13.008 5.167,13.302 4.93,13.602 4.895,16.206 4.879,17.191 4.874,18.176 4.87,19.162 4.848,24.75 0.308,29.268 -5.281,29.268 H -7.939 V 9.088 c 0,-1.517 0.368,-3.03 1.184,-4.309 C -5.255,2.43 -2.859,0.634 0,0" />
          </g>
          <g
             style="fill:#3c6fca;fill-opacity:1"
             transform="translate(196.0698,296.1035)"
             id="g80">
            <path
               inkscape:connector-curvature="0"
               id="path82"
               style="fill:#3c6fca;fill-opacity:1;fill-rule:nonzero;stroke:none"
               d="m 0,0 c -0.618,0 -1.036,0.033 -1.447,-0.005 -6.596,-0.609 -11.746,-6.279 -11.756,-12.917 -0.005,-3.7 0.019,-7.402 -0.065,-11.101 -0.112,-4.961 -4.126,-9.06 -9.057,-9.575 -3.788,-0.396 -7.048,0.594 -9.991,3.057 0.164,-0.297 0.301,-0.614 0.497,-0.889 3.795,-5.326 9.008,-7.687 15.498,-7.556 8.918,0.179 16.385,7.68 16.379,16.585 C 0.053,-15.528 0.02,-8.655 0,-1.783 -0.001,-1.218 0,-0.653 0,0" />
          </g>
        </g>
        <path
           d="m 238.028,224.129 h -76.057 v 20.978 h 76.057 z"
           style="fill:#c8c8c8;fill-opacity:1;fill-rule:nonzero;stroke:none"
           id="path84"
           inkscape:connector-curvature="0" />
      </g>
    </g>
  </g>
</svg>
