<?xml version="1.0" encoding="UTF-8" standalone="no"?>
<!-- Created with Inkscape (http://www.inkscape.org/) -->

<svg
   xmlns:dc="http://purl.org/dc/elements/1.1/"
   xmlns:cc="http://creativecommons.org/ns#"
   xmlns:rdf="http://www.w3.org/1999/02/22-rdf-syntax-ns#"
   xmlns:svg="http://www.w3.org/2000/svg"
   xmlns="http://www.w3.org/2000/svg"
   xmlns:sodipodi="http://sodipodi.sourceforge.net/DTD/sodipodi-0.dtd"
   xmlns:inkscape="http://www.inkscape.org/namespaces/inkscape"
   width="167.53116"
   height="33.19286"
   viewBox="0 0 44.325951 8.7822777"
   version="1.1"
   id="svg841"
   inkscape:version="0.92.3 (2405546, 2018-03-11)"
   sodipodi:docname="logo.svg">
  <defs
     id="defs835" />
  <sodipodi:namedview
     id="base"
     pagecolor="#ffffff"
     bordercolor="#666666"
     borderopacity="1.0"
     inkscape:pageopacity="0.0"
     inkscape:pageshadow="2"
     inkscape:zoom="3.959798"
     inkscape:cx="74.583002"
     inkscape:cy="28.948773"
     inkscape:document-units="mm"
     inkscape:current-layer="layer1"
     showgrid="false"
     units="px"
     inkscape:window-width="1307"
     inkscape:window-height="713"
     inkscape:window-x="59"
     inkscape:window-y="27"
     inkscape:window-maximized="1" />
  <metadata
     id="metadata838">
    <rdf:RDF>
      <cc:Work
         rdf:about="">
        <dc:format>image/svg+xml</dc:format>
        <dc:type
           rdf:resource="http://purl.org/dc/dcmitype/StillImage" />
        <dc:title></dc:title>
      </cc:Work>
    </rdf:RDF>
  </metadata>
  <g
     inkscape:label="Layer 1"
     inkscape:groupmode="layer"
     id="layer1"
     transform="translate(-17.225871,-288.13819)">
    <g
       transform="matrix(0.15704456,0,0,-0.15704456,7.9799349,314.29808)"
       id="g974">
      <g
         transform="translate(199.6626,151.7324)"
         id="g28">
        <path
           inkscape:connector-curvature="0"
           id="path30"
           style="fill:#0e1031;fill-opacity:1;fill-rule:nonzero;stroke:none"
           d="M 0,0 -7.159,-17.475 H 7.159 Z m 16.319,-40.03 -4.927,12.086 H -11.394 L -16.32,-40.03 H -28.406 L -5.312,14.24 H 5.62 l 23.093,-54.27 z" />
      </g>
      <g
         transform="translate(267.7187,147.1904)"
         id="g32">
        <path
           inkscape:connector-curvature="0"
           id="path34"
           style="fill:#0e1031;fill-opacity:1;fill-rule:nonzero;stroke:none"
           d="M 0,0 C 0,2.565 -0.821,4.49 -2.463,5.773 -4.106,7.056 -6.39,7.698 -9.314,7.698 H -21.093 V -7.774 h 12.009 c 2.926,0 5.17,0.692 6.736,2.078 C -0.783,-4.311 0,-2.463 0,-0.154 Z m -0.23,-35.488 -11.548,17.244 h -9.315 v -17.244 h -11.854 v 53.885 h 24.633 c 6.415,0 11.405,-1.565 14.973,-4.695 3.566,-3.131 5.35,-7.493 5.35,-13.087 V 0.462 C 12.009,-3.9 10.943,-7.455 8.814,-10.2 6.684,-12.946 3.9,-14.96 0.463,-16.242 l 13.162,-19.246 z" />
      </g>
      <g
         transform="translate(328.7314,138.6455)"
         id="g36">
        <path
           inkscape:connector-curvature="0"
           id="path38"
           style="fill:#0e1031;fill-opacity:1;fill-rule:nonzero;stroke:none"
           d="m 0,0 c 0,2.36 -0.398,4.542 -1.193,6.543 -0.797,2.002 -1.899,3.721 -3.31,5.158 -1.413,1.436 -3.118,2.552 -5.12,3.349 -2.001,0.795 -4.208,1.193 -6.619,1.193 h -9.162 v -32.485 h 9.162 c 2.411,0 4.618,0.385 6.619,1.154 2.002,0.771 3.707,1.873 5.12,3.311 1.411,1.435 2.513,3.13 3.31,5.08 C -0.398,-4.747 0,-2.566 0,-0.153 Z m 10.314,-10.623 c -1.385,-3.285 -3.348,-6.134 -5.888,-8.545 -2.54,-2.413 -5.569,-4.311 -9.084,-5.696 -3.516,-1.386 -7.377,-2.079 -11.584,-2.079 h -21.016 v 53.885 h 21.016 c 4.207,0 8.068,-0.679 11.584,-2.04 3.515,-1.36 6.544,-3.246 9.084,-5.657 2.54,-2.413 4.503,-5.248 5.888,-8.507 1.387,-3.259 2.08,-6.787 2.08,-10.584 V 0 c 0,-3.799 -0.693,-7.339 -2.08,-10.623" />
      </g>
      <g
         transform="translate(164.2495,119.417)"
         id="g40">
        <path
           inkscape:connector-curvature="0"
           id="path42"
           style="fill:#f26621;fill-opacity:1;fill-rule:nonzero;stroke:none"
           d="m 0,0 c -1.125,-1.143 -2.285,-2.195 -3.48,-3.141 -1.499,-1.178 -3.124,-2.195 -4.891,-3.034 -1.766,-0.856 -3.712,-1.499 -5.817,-1.928 -2.106,-0.446 -4.462,-0.66 -7.086,-0.66 -3.944,0 -7.621,0.714 -10.994,2.159 -3.391,1.428 -6.317,3.391 -8.78,5.89 -2.464,2.481 -4.391,5.426 -5.783,8.817 -1.374,3.373 -2.07,6.996 -2.07,10.851 v 0.143 c 0,3.854 0.696,7.46 2.07,10.815 1.124,2.731 2.606,5.176 4.426,7.353 0.464,0.5 0.928,0.982 1.428,1.446 0.053,-0.036 0,0 0.071,-0.036 -0.464,-1.642 -7.924,-18.383 3.106,-25.986 1.035,-0.731 1.891,-1.695 2.463,-2.837 0.66,-1.303 1.463,-2.498 2.391,-3.57 1.357,-1.535 2.998,-2.766 4.926,-3.658 1.927,-0.893 4.033,-1.356 6.353,-1.356 3.07,0 5.676,0.57 7.817,1.695 l 0.072,0.035 c 4.176,2.249 9.352,1.481 12.689,-1.892 z" />
      </g>
      <g
         style="fill:#3c6fca;fill-opacity:1"
         transform="translate(164.2495,119.417)"
         id="g44">
        <path
           inkscape:connector-curvature="0"
           id="path46"
           style="fill:#3c6fca;fill-opacity:1;fill-rule:nonzero;stroke:none"
           d="m 0,0 c -1.125,-1.143 -2.285,-2.195 -3.48,-3.141 -1.499,-1.178 -3.124,-2.195 -4.891,-3.034 -1.766,-0.856 -3.712,-1.499 -5.817,-1.928 -2.106,-0.446 -4.462,-0.66 -7.086,-0.66 -3.944,0 -7.621,0.714 -10.994,2.159 -3.391,1.428 -6.317,3.391 -8.78,5.89 -2.464,2.481 -4.391,5.426 -5.783,8.817 -1.374,3.373 -2.07,6.996 -2.07,10.851 v 0.143 c 0,3.854 0.696,7.46 2.07,10.815 1.124,2.731 2.606,5.176 4.426,7.353 0.464,0.5 0.928,0.982 1.428,1.446 0.053,-0.036 0,0 0.071,-0.036 -0.464,-1.642 -7.924,-18.383 3.106,-25.986 1.035,-0.731 1.891,-1.695 2.463,-2.837 0.66,-1.303 1.463,-2.498 2.391,-3.57 1.357,-1.535 2.998,-2.766 4.926,-3.658 1.927,-0.893 4.033,-1.356 6.353,-1.356 3.07,0 5.676,0.57 7.817,1.695 l 0.072,0.035 c 4.176,2.249 9.352,1.481 12.689,-1.892 z" />
      </g>
      <g
         transform="translate(167.7773,158.1309)"
         id="g48">
        <path
           inkscape:connector-curvature="0"
           id="path50"
           style="fill:#0e1031;fill-opacity:1;fill-rule:nonzero;stroke:none"
           d="m 0,0 -1.478,-1.702 c -3.097,-3.566 -8.216,-4.578 -12.437,-2.46 -2.177,1.071 -4.64,1.606 -7.353,1.606 -2.267,0 -4.355,-0.427 -6.282,-1.302 -1.928,-0.874 -3.57,-2.071 -4.962,-3.623 -1.374,-1.536 -2.463,-3.32 -3.23,-5.336 -0.767,-2.036 -1.16,-4.212 -1.16,-6.515 v -0.16 c 0,-2.216 0.363,-4.316 1.075,-6.3 0.029,-0.082 -0.062,-0.155 -0.138,-0.114 -11.721,6.335 -6.993,20.851 -5.102,25.612 0.574,0.776 1.118,1.513 1.692,2.29 2.501,2.026 4.168,3.083 6.792,4.193 3.427,1.464 7.228,2.196 11.386,2.196 2.517,0 4.819,-0.214 6.889,-0.625 2.089,-0.41 3.962,-0.963 5.658,-1.696 1.695,-0.713 3.266,-1.587 4.694,-2.605 1.42,-1.018 2.738,-2.121 3.952,-3.327 C 0.031,0.097 0.033,0.038 0,0" />
      </g>
      <g
         style="fill:#3c6fca;fill-opacity:1"
         transform="translate(70.2446,124.6592)"
         id="g52">
        <path
           inkscape:connector-curvature="0"
           id="path54"
           style="fill:#3c6fca;fill-opacity:1;fill-rule:nonzero;stroke:none"
           d="M 0,0 C 3.99,-0.89 7.93,-0.76 11.41,2.77 7.4,3.189 7.06,3.61 7.01,7.35 6.97,10.18 6.98,13.02 6.96,15.86 8.5,16.32 10,17.189 11.41,18.63 7.4,19.05 7.06,19.479 7.01,23.21 6.988,24.62 6.98,26.031 6.975,27.442 6.943,35.447 0.441,41.917 -7.563,41.917 H -11.37 V 13.016 c 0,-2.172 0.528,-4.34 1.696,-6.171 C -7.526,3.48 -4.095,0.907 0,0" />
      </g>
      <g
         style="fill:#3c6fca;fill-opacity:1"
         transform="translate(107.7095,166.5566)"
         id="g56">
        <path
           inkscape:connector-curvature="0"
           id="path58"
           style="fill:#3c6fca;fill-opacity:1;fill-rule:nonzero;stroke:none"
           d="M 0,0 C -0.885,0 -1.483,0.048 -2.073,-0.007 -11.519,-0.879 -18.895,-9 -18.909,-18.506 c -0.008,-5.3 0.028,-10.601 -0.092,-15.898 -0.161,-7.106 -5.911,-12.976 -12.972,-13.713 -5.425,-0.568 -10.094,0.85 -14.31,4.378 0.236,-0.426 0.432,-0.879 0.713,-1.274 5.435,-7.628 12.901,-11.008 22.195,-10.822 12.772,0.257 23.466,10.999 23.457,23.753 C 0.075,-22.238 0.028,-12.396 0,-2.553 -0.002,-1.744 0,-0.935 0,0" />
      </g>
    </g>
  </g>
</svg>
